<?xml version="1.0" standalone="no"?>
<!DOCTYPE svg PUBLIC "-//W3C//DTD SVG 20010904//EN"
 "http://www.w3.org/TR/2001/REC-SVG-20010904/DTD/svg10.dtd">
<svg version="1.0" xmlns="http://www.w3.org/2000/svg"
 width="537.000000pt" height="537.000000pt" viewBox="0 0 537.000000 537.000000"
 preserveAspectRatio="xMidYMid meet">
<metadata>
Created by potrace 1.14, written by Peter Selinger 2001-2017
</metadata>
<g transform="translate(0.000000,537.000000) scale(0.100000,-0.100000)"
fill="#000000" stroke="none">
<path d="M2670 5189 c-176 -13 -431 -63 -525 -104 -16 -7 -46 -18 -65 -25
-123 -45 -330 -170 -464 -279 -132 -109 -321 -323 -373 -425 -9 -17 -19 -33
-23 -36 -9 -6 -92 -173 -109 -220 -8 -19 -20 -50 -28 -68 -44 -101 -99 -333
-110 -472 -11 -127 -3 -404 11 -429 2 -3 7 -26 10 -51 3 -25 12 -69 19 -97 13
-50 13 -53 -9 -74 -30 -28 -64 -109 -68 -162 -3 -44 13 -128 36 -187 27 -69
81 -160 95 -160 19 0 9 34 -26 85 -87 128 -103 304 -33 386 l25 30 32 -93 c17
-52 35 -125 38 -162 4 -44 19 -97 43 -154 37 -85 128 -247 145 -258 14 -9 10
-24 -6 -24 -27 0 -93 -39 -129 -76 -19 -20 -45 -60 -57 -90 -19 -44 -26 -53
-41 -48 -67 21 -166 -8 -225 -65 l-32 -31 -38 36 c-135 130 -293 79 -293 -95
0 -87 23 -124 282 -452 146 -184 231 -297 236 -309 16 -43 103 -162 166 -225
168 -168 315 -235 488 -221 243 20 522 199 685 440 84 125 112 315 68 466 -32
106 -32 100 11 88 134 -37 533 -44 646 -12 17 5 -171 -269 -202 -293 -8 -7
-24 -13 -36 -13 -30 0 -96 -47 -138 -99 -66 -79 -145 -233 -162 -316 -32 -155
-11 -321 54 -425 77 -124 177 -225 299 -306 l81 -54 339 0 c338 0 339 0 370
23 95 70 187 175 252 285 35 61 71 109 199 271 311 394 341 441 337 529 -6
124 -100 192 -206 148 -19 -8 -55 -33 -80 -55 l-46 -40 -42 38 c-56 51 -127
72 -201 58 -35 -7 -36 -6 -52 41 -29 81 -116 161 -190 174 -14 2 -10 13 24 63
22 33 64 109 92 168 48 99 58 112 122 163 613 486 845 1290 584 2025 -173 486
-557 882 -1034 1066 -50 19 -98 36 -107 38 -9 2 -45 12 -80 23 -35 11 -86 23
-113 26 -27 4 -53 9 -56 11 -10 6 -71 13 -180 21 -52 4 -97 7 -100 8 -3 1 -52
-1 -110 -5z"/>
<path d="M902 2988 c-51 -68 -69 -109 -86 -189 -21 -102 -3 -249 38 -304 25
-35 29 -9 7 50 -55 146 -24 336 71 440 30 32 33 41 19 50 -6 3 -28 -18 -49
-47z"/>
<path d="M793 2973 c-29 -68 -35 -91 -39 -143 -4 -58 5 -110 20 -110 7 0 10
25 9 77 -2 63 3 89 24 141 31 77 17 110 -14 35z"/>
<path d="M2140 754 c-40 -30 -103 -70 -140 -89 -100 -50 -166 -71 -325 -100
-40 -7 -200 -7 -241 1 -34 6 -55 -9 -26 -21 9 -4 69 -9 132 -11 119 -4 250 16
350 51 139 50 365 198 332 218 -4 4 -41 -19 -82 -49z"/>
<path d="M2128 569 c-144 -75 -291 -110 -478 -114 -74 -2 -136 -8 -138 -13 -5
-16 39 -21 140 -17 178 7 367 53 483 118 11 6 32 17 48 25 15 7 25 18 22 23
-8 12 -12 11 -77 -22z"/>
<path d="M4177 528 c-77 -126 -159 -240 -231 -320 -47 -54 -80 -98 -73 -98 24
0 168 162 244 275 39 59 93 151 93 160 0 14 -21 2 -33 -17z"/>
<path d="M2174 455 c-141 -91 -332 -144 -502 -139 -63 1 -92 -1 -89 -9 1 -5
12 -12 23 -14 22 -4 180 -3 209 1 109 15 236 58 330 112 82 47 101 62 89 73
-5 6 -29 -4 -60 -24z"/>
</g>
</svg>
