<svg width="22" height="22" viewBox="0 0 22 22" fill="none" xmlns="http://www.w3.org/2000/svg">
<path fill-rule="evenodd" clip-rule="evenodd" d="M11 1C5.48 1 1 5.48 1 11C1 16.52 5.48 21 11 21C16.52 21 21 16.52 21 11C21 5.48 16.52 1 11 1ZM6.07 17.28C6.5 16.38 9.12 15.5 11 15.5C12.88 15.5 15.51 16.38 15.93 17.28C14.57 18.36 12.86 19 11 19C9.14 19 7.43 18.36 6.07 17.28ZM17.36 15.83C15.93 14.09 12.46 13.5 11 13.5C9.54 13.5 6.07 14.09 4.64 15.83C3.62 14.49 3 12.82 3 11C3 6.59 6.59 3 11 3C15.41 3 19 6.59 19 11C19 12.82 18.38 14.49 17.36 15.83V15.83ZM11 5C9.06 5 7.5 6.56 7.5 8.5C7.5 10.44 9.06 12 11 12C12.94 12 14.5 10.44 14.5 8.5C14.5 6.56 12.94 5 11 5ZM11 10C10.17 10 9.5 9.33 9.5 8.5C9.5 7.67 10.17 7 11 7C11.83 7 12.5 7.67 12.5 8.5C12.5 9.33 11.83 10 11 10Z" fill="white"/>
<path d="M6.07 17.28L5.61885 17.0644L5.44713 17.4239L5.75906 17.6716L6.07 17.28ZM15.93 17.28L16.2409 17.6716L16.55 17.4262L16.3831 17.0686L15.93 17.28ZM4.64 15.83L4.24215 16.1328L4.62497 16.6358L5.02629 16.1475L4.64 15.83ZM11 0.5C5.20386 0.5 0.5 5.20386 0.5 11H1.5C1.5 5.75614 5.75614 1.5 11 1.5V0.5ZM0.5 11C0.5 16.7961 5.20386 21.5 11 21.5V20.5C5.75614 20.5 1.5 16.2439 1.5 11H0.5ZM11 21.5C16.7961 21.5 21.5 16.7961 21.5 11H20.5C20.5 16.2439 16.2439 20.5 11 20.5V21.5ZM21.5 11C21.5 5.20386 16.7961 0.5 11 0.5V1.5C16.2439 1.5 20.5 5.75614 20.5 11H21.5ZM6.52115 17.4956C6.5662 17.4013 6.71102 17.2402 7.02179 17.0465C7.31751 16.8622 7.70851 16.6822 8.1574 16.5241C9.05802 16.2068 10.1265 16 11 16V15C9.99348 15 8.81198 15.2332 7.8251 15.5809C7.33024 15.7553 6.86812 15.964 6.4929 16.1978C6.13273 16.4223 5.7888 16.7087 5.61885 17.0644L6.52115 17.4956ZM11 16C11.8736 16 12.9447 16.2068 13.8465 16.5242C14.2961 16.6823 14.6872 16.8623 14.9822 17.0464C15.2927 17.2401 15.4343 17.4001 15.4769 17.4914L16.3831 17.0686C16.2157 16.7099 15.8711 16.4224 15.5116 16.198C15.1366 15.964 14.6739 15.7552 14.1785 15.5808C13.1903 15.2332 12.0064 15 11 15V16ZM15.6191 16.8884C14.3442 17.9008 12.7429 18.5 11 18.5V19.5C12.9771 19.5 14.7958 18.8192 16.2409 17.6716L15.6191 16.8884ZM11 18.5C9.25707 18.5 7.65582 17.9008 6.38094 16.8884L5.75906 17.6716C7.20418 18.8192 9.02293 19.5 11 19.5V18.5ZM17.7463 15.5125C16.9353 14.5258 15.5926 13.9072 14.3336 13.5332C13.0611 13.1552 11.7807 13 11 13V14C11.6793 14 12.8639 14.1398 14.0489 14.4918C15.2474 14.8478 16.3547 15.3942 16.9737 16.1475L17.7463 15.5125ZM11 13C10.2193 13 8.9389 13.1552 7.66637 13.5332C6.40736 13.9072 5.06469 14.5258 4.25371 15.5125L5.02629 16.1475C5.64531 15.3942 6.75264 14.8478 7.95113 14.4918C9.1361 14.1398 10.3207 14 11 14V13ZM5.03785 15.5272C4.0801 14.2689 3.5 12.7041 3.5 11H2.5C2.5 12.9359 3.1599 14.7111 4.24215 16.1328L5.03785 15.5272ZM3.5 11C3.5 6.86614 6.86614 3.5 11 3.5V2.5C6.31386 2.5 2.5 6.31386 2.5 11H3.5ZM11 3.5C15.1339 3.5 18.5 6.86614 18.5 11H19.5C19.5 6.31386 15.6861 2.5 11 2.5V3.5ZM18.5 11C18.5 12.7041 17.9199 14.2689 16.9621 15.5272L17.7579 16.1328C18.8401 14.7111 19.5 12.9359 19.5 11H18.5ZM11 4.5C8.78386 4.5 7 6.28386 7 8.5H8C8 6.83614 9.33614 5.5 11 5.5V4.5ZM7 8.5C7 10.7161 8.78386 12.5 11 12.5V11.5C9.33614 11.5 8 10.1639 8 8.5H7ZM11 12.5C13.2161 12.5 15 10.7161 15 8.5H14C14 10.1639 12.6639 11.5 11 11.5V12.5ZM15 8.5C15 6.28386 13.2161 4.5 11 4.5V5.5C12.6639 5.5 14 6.83614 14 8.5H15ZM11 9.5C10.4461 9.5 10 9.05386 10 8.5H9C9 9.60614 9.89386 10.5 11 10.5V9.5ZM10 8.5C10 7.94614 10.4461 7.5 11 7.5V6.5C9.89386 6.5 9 7.39386 9 8.5H10ZM11 7.5C11.5539 7.5 12 7.94614 12 8.5H13C13 7.39386 12.1061 6.5 11 6.5V7.5ZM12 8.5C12 9.05386 11.5539 9.5 11 9.5V10.5C12.1061 10.5 13 9.60614 13 8.5H12Z" fill="black"/>
</svg>
